<svg xmlns="http://www.w3.org/2000/svg" viewBox="0 0 800 600" role="img" aria-label="Producto sin imagen">
  <defs>
    <linearGradient id="bg" x1="0" y1="0" x2="0" y2="1">
      <stop offset="0%" stop-color="#dcfce7"/>
      <stop offset="100%" stop-color="#bbf7d0"/>
    </linearGradient>
    <pattern id="grid" width="40" height="40" patternUnits="userSpaceOnUse">
      <path d="M 40 0 L 0 0 0 40" fill="none" stroke="#86efac" stroke-width="1" opacity="0.35"/>
    </pattern>
  </defs>
  <rect width="800" height="600" fill="url(#bg)"/>
  <rect width="800" height="600" fill="url(#grid)"/>
  <g transform="translate(400 270)">
    <circle r="120" fill="#ffffff" opacity="0.6"/>
    <g transform="translate(-56 -56) scale(4.6)" fill="none" stroke="#15803d" stroke-width="1.5" stroke-linecap="round" stroke-linejoin="round">
      <path d="M7 20h10"/>
      <path d="M10 20c5.5-2.5.8-6.4 3-10"/>
      <path d="M9.1 14.6c-1.6-1.7-1.6-4.4-.4-6.2 1.4-2.1 2.7-3.4 3.5-4 .4-.3 1 .1 1 .6.2 2.6 1.1 5.3 2.6 7 .9 1 1.6 2.5 1.6 4.1a4.7 4.7 0 0 1-5.4 4.5c-1.6-.3-2.7-1-3.3-1.9C8.1 16.6 8.3 15.5 9.1 14.6Z"/>
    </g>
  </g>
  <text x="400" y="430" font-family="-apple-system, system-ui, Arial, sans-serif" font-size="24" font-weight="600" text-anchor="middle" fill="#14532d">
    AgroPulse
  </text>
  <text x="400" y="462" font-family="-apple-system, system-ui, Arial, sans-serif" font-size="16" text-anchor="middle" fill="#15803d" opacity="0.75">
    Imagen del producto no disponible
  </text>
</svg>
